<svg width="490" height="633" xmlns="http://www.w3.org/2000/svg" xmlns:xlink="http://www.w3.org/1999/xlink" xml:space="preserve" overflow="hidden"><defs><clipPath id="clip0"><rect x="737" y="534" width="490" height="633"/></clipPath></defs><g clip-path="url(#clip0)" transform="translate(-737 -534)"><path d="M776 740 945.584 703.584 982 534 1018.42 703.584 1188 740 1018.42 776.416 982 946 945.584 776.416Z" fill="#FFFFFF" fill-rule="evenodd"/><path d="M933 897C846.291 897 776 826.709 776 740 776 653.291 846.291 583 933 583 846.291 648.031 828.718 771.041 893.75 857.75 904.908 872.627 918.123 885.842 933 897Z" fill="#FFFFFF" fill-rule="evenodd"/><path d="M157 314C70.2913 314 0 243.709 0 157-1.99882e-14 70.2913 70.2913-1.99882e-14 157-3.99764e-14 70.2913 65.0315 52.7185 188.041 117.75 274.75 128.908 289.627 142.123 302.842 157 314Z" fill="#FFFFFF" fill-rule="evenodd" transform="matrix(-1 0 0 1 1188 583)"/><path d="M1139.89 1089.84 1217.21 1089.84 1214.92 1106.24 1137.6 1106.24ZM763.325 1087.79 788.887 1093.04 789.014 1093.04 805.801 1096.63 816.229 1098.68 809.489 1112 756.203 1100.34ZM1077.57 1078.82 1093.98 1078.82 1091.56 1095.86C1091.9 1095.6 1090.92 1096.46 1088.63 1098.42L1081.26 1104.95 1073.88 1104.95 1076.17 1088.56ZM1025.43 1074.47 1025.43 1090.48 985.751 1096.76 985.879 1080.62 991.983 1079.72 995.162 1079.21 997.324 1078.95 997.324 1078.82 1017.54 1075.75ZM797.407 1065.12 797.153 1071.78 781.892 1071.78 782.02 1065.5ZM878.672 1060.76 898.383 1060.76 895.204 1066.91 950.779 1066.91 953.831 1070.5C955.103 1071.86 956.671 1073.7 958.536 1076.01L955.357 1098.55C952.305 1101.2 948.871 1104.23 945.056 1107.64L900.164 1107.64 902.326 1092.4 936.281 1092.4 937.68 1082.28 876.637 1082.28 874.22 1069.35ZM789.65 1060.51 763.961 1072.93 815.72 1072.93ZM1168.12 1055.77 1179.56 1069.22 1156.55 1089.46 1149.3 1081 1150.7 1071.27ZM865.7 1043.98 973.289 1043.98 971.126 1059.61 863.538 1059.61ZM806.564 1037.71 828.565 1037.71 827.675 1043.73 805.801 1043.73ZM760.527 1037.71 782.401 1037.71 781.638 1043.73 759.637 1043.73ZM1059.51 1034.76 1075.79 1034.76 1070.07 1076.39 1053.66 1076.39ZM1037 1034.76 1055.06 1034.76 1047.56 1088.69 1074.9 1088.69 1072.61 1104.95 1036.24 1104.95C1033.1 1101.11 1030.52 1098.08 1028.48 1095.86ZM1004.06 1030.28 1031.41 1030.28 1029.12 1046.8 1019.83 1046.8 1016.02 1074.85 997.451 1077.54 1001.78 1046.8 991.983 1046.8 994.272 1030.41ZM750.226 1022.59 759.51 1022.59 757.857 1033.99 757.729 1033.99 755.186 1051.8 739.416 1051.8 742.468 1029.51C744.673 1027.38 747.259 1025.07 750.226 1022.59ZM1205.63 1022.47 1217.21 1035.66 1196.61 1053.98 1185.16 1040.53ZM1167.74 1022.34 1182.23 1038.99 1208.94 1070.37C1208.35 1074.64 1207.88 1077.89 1207.54 1080.11L1197.75 1088.69 1181.98 1069.86 1152.48 1035.53ZM1033.7 1017.34 1092.7 1017.34 1100.59 1026.44 1095.12 1065.5 1088.63 1071.27 1084.69 1074.73 1072.48 1074.73 1074.65 1058.97 1078.97 1058.97 1082.53 1033.61 1031.41 1033.61ZM1151.71 1005.3 1227 1005.3 1224.58 1021.82 1149.42 1021.82ZM1140.39 1005.3 1150.44 1005.3 1148.15 1022.34 1139 1087.53 1136.45 1106.24 1126.41 1106.24C1122.68 1102.05 1120.09 1099.02 1118.65 1097.14L1130.09 1014.4C1133.15 1011.75 1136.58 1008.72 1140.39 1005.3ZM1041.2 1004.79 1059.26 1004.79 1057.73 1016.06 1039.55 1016.06ZM846.369 1004.15 844.335 1018.37 807.073 1018.37 806.437 1022.59 843.063 1022.59 846.369 1026.44 848.913 1029.51 845.733 1051.8 829.71 1051.8 832.253 1033.99 803.766 1033.99 802.24 1045.14 797.026 1045.14 804.784 1051.29 805.292 1047.31 827.166 1047.31 826.276 1053.72 807.708 1053.72 838.866 1065.5C839.375 1067.55 839.587 1068.45 839.502 1068.19 840.18 1071.1 840.731 1073.4 841.155 1075.11L835.941 1082.67 826.403 1078.18 825.258 1085.74 807.454 1095.48 790.667 1092.15 802.876 1085.74 750.353 1085.87 751.371 1079.21 740.179 1084.72 737 1077.03 741.324 1067.55 772.354 1053.72 758.365 1053.72 759.255 1047.31 781.129 1047.31 780.748 1049.88 791.43 1045.14 784.69 1045.14 786.216 1033.99 759.128 1033.99 760.654 1022.59 786.852 1022.59 787.361 1018.37 750.099 1018.37 752.006 1004.4ZM880.579 1002.36 899.273 1002.36 897.239 1017.21 896.984 1019.39 896.094 1025.28 947.981 1025.28 949.125 1017.21 898.51 1017.21 900.545 1002.36 960.952 1002.36 964.895 1006.84 968.71 1011.45 966.039 1030.66C962.987 1033.31 959.554 1036.34 955.739 1039.76L875.365 1039.76ZM1064.6 998 1081.89 998 1079.35 1016.06 1062.06 1016.06ZM1008.52 998 1026.7 998 1022.38 1029 1004.19 1029Z" fill="#FFFFFF" fill-rule="evenodd"/><path d="M963.624 1152.83C962.118 1152.83 960.988 1153.15 960.235 1153.79 959.482 1154.43 959.116 1155.41 959.137 1156.73 959.116 1158.12 959.593 1159.15 960.569 1159.82 961.545 1160.49 963.019 1160.81 964.993 1160.79 967.39 1160.81 969.183 1160.56 970.371 1160.03 971.559 1159.49 972.153 1158.65 972.153 1157.5L972.153 1152.83ZM1097.06 1140.16C1095.05 1140.16 1093.49 1140.76 1092.38 1141.98 1091.28 1143.2 1090.73 1144.91 1090.73 1147.13L1090.73 1152.63C1090.73 1154.87 1091.28 1156.61 1092.38 1157.83 1093.49 1159.06 1095.05 1159.67 1097.06 1159.67 1099.08 1159.67 1100.64 1159.06 1101.74 1157.83 1102.84 1156.61 1103.39 1154.87 1103.39 1152.63L1103.39 1147.13C1103.39 1144.91 1102.84 1143.2 1101.74 1141.98 1100.64 1140.76 1099.08 1140.16 1097.06 1140.16ZM1035.6 1139.74C1033.33 1139.74 1031.57 1140.46 1030.32 1141.9 1029.69 1142.62 1029.22 1143.49 1028.91 1144.51L1028.52 1147.42 1041.94 1147.42 1041.9 1147.04C1041.69 1144.75 1041.04 1142.97 1039.96 1141.68 1038.88 1140.39 1037.43 1139.74 1035.6 1139.74ZM932.695 1139.74C930.425 1139.74 928.664 1140.46 927.412 1141.9 926.786 1142.62 926.317 1143.49 926.004 1144.51L925.616 1147.42 939.028 1147.42 938.996 1147.04C938.784 1144.75 938.137 1142.97 937.055 1141.68 935.973 1140.39 934.519 1139.74 932.695 1139.74ZM1097.06 1132.83C1101.47 1132.83 1104.9 1134.08 1107.34 1136.57 1109.78 1139.07 1111 1142.59 1111 1147.13L1111 1152.63C1111 1157.2 1109.78 1160.73 1107.34 1163.24 1104.9 1165.75 1101.47 1167 1097.06 1167 1092.65 1167 1089.22 1165.74 1086.78 1163.21 1084.34 1160.68 1083.12 1157.12 1083.12 1152.54L1083.12 1147.13C1083.12 1142.59 1084.34 1139.07 1086.78 1136.57 1089.22 1134.08 1092.65 1132.83 1097.06 1132.83ZM1072.71 1132.83C1074.13 1132.83 1075.42 1133.05 1076.59 1133.49 1077.76 1133.92 1078.78 1134.57 1079.68 1135.42L1075.03 1141.85C1074.52 1141.3 1073.89 1140.88 1073.15 1140.59 1072.41 1140.3 1071.55 1140.16 1070.57 1140.16 1068.66 1140.16 1067.18 1140.73 1066.13 1141.87 1065.08 1143.01 1064.56 1144.59 1064.56 1146.62L1064.56 1166.52 1056.64 1166.52 1056.64 1133.31 1064.56 1133.31 1064.56 1138.27 1067.61 1134.49C1069.14 1133.38 1070.84 1132.83 1072.71 1132.83ZM1035.6 1132.83C1039.87 1132.83 1043.17 1134.4 1045.5 1137.55 1047.83 1140.69 1049 1145.13 1049 1150.84L1049 1153.02 1028.56 1153.02 1028.95 1155.57C1029.29 1156.53 1029.8 1157.35 1030.48 1158.03 1031.84 1159.38 1033.74 1160.06 1036.18 1160.06 1037.43 1160.06 1038.66 1159.82 1039.88 1159.35 1041.1 1158.88 1042.2 1158.21 1043.18 1157.34L1048.14 1162.04C1046.47 1163.62 1044.58 1164.84 1042.49 1165.7 1040.4 1166.57 1038.3 1167 1036.18 1167 1031.49 1167 1027.85 1165.7 1025.26 1163.11 1022.67 1160.52 1021.38 1156.86 1021.38 1152.12L1021.38 1148.38C1021.38 1143.43 1022.62 1139.6 1025.1 1136.89 1027.58 1134.18 1031.08 1132.83 1035.6 1132.83ZM965.852 1132.83C970.074 1132.83 973.352 1133.91 975.685 1136.06 978.019 1138.22 979.186 1141.25 979.186 1145.18L979.186 1166.52 972.153 1166.52 972.153 1163.19 970.896 1164.92C969.973 1165.62 968.875 1166.15 967.602 1166.49 966.329 1166.83 964.961 1167 963.497 1167 959.721 1167 956.883 1166.16 954.984 1164.47 953.085 1162.79 952.136 1160.21 952.136 1156.73 952.136 1153.42 953.091 1150.95 955 1149.32 956.909 1147.69 959.774 1146.88 963.592 1146.88L972.153 1146.88 972.153 1145.47C972.153 1143.61 971.612 1142.17 970.53 1141.15 969.448 1140.12 967.899 1139.61 965.884 1139.61 964.632 1139.61 963.385 1139.81 962.144 1140.2 960.903 1140.6 959.805 1141.17 958.851 1141.92L953.759 1137.63C955.053 1136.11 956.75 1134.94 958.851 1134.09 960.951 1133.25 963.285 1132.83 965.852 1132.83ZM932.695 1132.83C936.959 1132.83 940.258 1134.4 942.592 1137.55 944.926 1140.69 946.092 1145.13 946.092 1150.84L946.092 1153.02 925.652 1153.02 926.043 1155.57C926.383 1156.53 926.892 1157.35 927.571 1158.03 928.929 1159.38 930.828 1160.06 933.268 1160.06 934.519 1160.06 935.755 1159.82 936.975 1159.35 938.195 1158.88 939.293 1158.21 940.269 1157.34L945.234 1162.04C943.557 1163.62 941.674 1164.84 939.584 1165.7 937.495 1166.57 935.389 1167 933.268 1167 928.579 1167 924.94 1165.7 922.352 1163.11 919.764 1160.52 918.47 1156.86 918.47 1152.12L918.47 1148.38C918.47 1143.43 919.711 1139.6 922.193 1136.89 924.675 1134.18 928.176 1132.83 932.695 1132.83ZM908.053 1132.83C909.474 1132.83 910.769 1133.05 911.936 1133.49 913.102 1133.92 914.131 1134.57 915.023 1135.42L910.376 1141.85C909.867 1141.3 909.241 1140.88 908.499 1140.59 907.756 1140.3 906.897 1140.16 905.921 1140.16 904.012 1140.16 902.532 1140.73 901.482 1141.87 900.432 1143.01 899.906 1144.59 899.906 1146.62L899.906 1166.52 891.982 1166.52 891.982 1133.31 899.906 1133.31 899.906 1138.27 902.961 1134.49C904.489 1133.38 906.186 1132.83 908.053 1132.83ZM867.144 1131.87 860.775 1150.36 873.531 1150.36ZM987.33 1120 1015.53 1120 1015.53 1126.75 995.954 1159.19 1016.16 1159.19 1016.16 1166.52 986.757 1166.52 986.757 1159.77 1006.42 1127.33 987.33 1127.33ZM864.376 1120 869.913 1120 887.289 1166.52 879.11 1166.52 876.061 1157.69 858.252 1157.69 855.211 1166.52 847 1166.52Z" fill="#7F7F7F" fill-rule="evenodd"/></g></svg>