<svg width="668" height="699" xmlns="http://www.w3.org/2000/svg" xmlns:xlink="http://www.w3.org/1999/xlink" xml:space="preserve" overflow="hidden"><defs><clipPath id="clip0"><rect x="648" y="534" width="668" height="699"/></clipPath></defs><g clip-path="url(#clip0)" transform="translate(-648 -534)"><path d="M776 740 945.584 703.584 982 534 1018.42 703.584 1188 740 1018.42 776.416 982 946 945.584 776.416Z" fill="#FFFFFF" fill-rule="evenodd"/><path d="M933 897C846.291 897 776 826.709 776 740 776 653.291 846.291 583 933 583 846.291 648.031 828.718 771.041 893.75 857.75 904.908 872.627 918.123 885.842 933 897Z" fill="#FFFFFF" fill-rule="evenodd"/><path d="M157 314C70.2913 314 0 243.709 0 157-1.99882e-14 70.2913 70.2913-1.99882e-14 157-3.99764e-14 70.2913 65.0315 52.7185 188.041 117.75 274.75 128.908 289.627 142.123 302.842 157 314Z" fill="#FFFFFF" fill-rule="evenodd" transform="matrix(-1 0 0 1 1188 583)"/><text fill="#FFFFFF" font-family="zihun152hao-jijiachaojihei,zihun152hao-jijiachaojihei_MSFontService,sans-serif" font-weight="400" font-size="128" transform="matrix(1 0 0 1 725.476 1090)">零号地区</text><text fill="#7F7F7F" font-family="Bahnschrift SemiBold,Bahnschrift SemiBold_MSFontService,sans-serif" font-weight="600" font-size="64" transform="matrix(1 0 0 1 847.232 1181)">AreaZero</text></g></svg>